<?xml version="1.0" standalone="no"?><!DOCTYPE svg PUBLIC "-//W3C//DTD SVG 1.1//EN" "http://www.w3.org/Graphics/SVG/1.1/DTD/svg11.dtd"><svg t="1616395088922" class="icon" viewBox="0 0 1024 1024" version="1.1" xmlns="http://www.w3.org/2000/svg" p-id="12550" xmlns:xlink="http://www.w3.org/1999/xlink" width="200" height="200"><defs><style type="text/css"></style></defs><path d="M508.883521 266.921235c120.895441 0.180102 218.702024 98.029664 218.906685 219.006969-0.12382 66.171072-26.290783 125.234259-61.126172 175.142949 52.435233-27.607778 118.586862-85.516676 118.644167-175.142949C785.249873 333.2325 661.478941 209.500455 508.883521 209.482035l-0.831948 0c-152.634306 0.019443-276.383748 123.750465-276.429797 276.446169 0.045025 89.62525 66.170049 147.535171 118.650307 175.142949-34.854832-49.907667-61.043285-108.971877-61.145615-175.142949 0.200568-120.977305 98.030687-218.826867 218.925105-219.006969L508.883521 266.921235 508.883521 266.921235zM508.093529 61.464887c-234.481406 0-424.384523 190.002378-424.443875 424.360987 0 62.875003 13.713326 122.623805 38.239929 176.297238 49.217958 107.58632 142.060483 172.968423 255.930927 202.658629l-7.721869-15.981996c-86.948281-42.611493-157.26886-126.121466-196.056258-211.265658-21.084201-46.196135-32.772404-97.563036-32.889061-151.707191C141.456221 283.162128 305.431829 119.31034 508.098645 118.904087c202.593138 0.406253 366.528837 164.259064 366.851179 366.921787-0.237407 151.062508-91.422176 298.995745-221.73715 362.185926l-6.620791 17.401322c166.340469-51.101865 285.860587-193.733353 285.879006-379.587248C932.43405 251.466242 742.47158 61.464887 508.093529 61.464887M631.074468 614.890368c12.172227 149.957337-70.585615 334.331531-70.585615 334.331531s-21.004383 10.025331-52.1528 10.025331c-31.091112 0-52.643987-10.025331-52.643987-10.025331s-82.815147-184.374194-70.643943-334.331531c0 0 19.523659-63.075571 123.997082-63.075571C613.493044 551.819914 631.074468 614.890368 631.074468 614.890368M601.507058 427.228291c0 51.609425-41.84913 93.452415-93.454462 93.452415-51.567469 0-93.41046-41.84299-93.41046-93.452415 0-51.585889 41.84299-93.428879 93.41046-93.428879C559.657928 333.799412 601.507058 375.642402 601.507058 427.228291" p-id="12551" fill="#6800B4"></path></svg>