<?xml version="1.0" standalone="no"?><!DOCTYPE svg PUBLIC "-//W3C//DTD SVG 1.1//EN" "http://www.w3.org/Graphics/SVG/1.1/DTD/svg11.dtd"><svg t="1616133335523" class="icon" viewBox="0 0 1024 1024" version="1.1" xmlns="http://www.w3.org/2000/svg" p-id="2182" xmlns:xlink="http://www.w3.org/1999/xlink" width="200" height="200"><defs><style type="text/css"></style></defs><path d="M597.333333 631.466667a33.9968 33.9968 0 0 1-24.132266-10.001067l-85.333334-85.333333A34.133333 34.133333 0 0 1 477.866667 512V341.333333a34.133333 34.133333 0 0 1 68.266666 0v156.5184l75.332267 75.349334A34.133333 34.133333 0 0 1 597.333333 631.466667z m255.146667-341.333334a33.9968 33.9968 0 0 1-24.132267-10.001066l-85.333333-85.333334a34.133333 34.133333 0 1 1 48.264533-48.264533l85.333334 85.333333A34.133333 34.133333 0 0 1 852.48 290.133333zM512 133.12a34.133333 34.133333 0 0 1-34.133333-34.133333V85.333333a34.133333 34.133333 0 0 1 68.266666 0v13.653334a34.133333 34.133333 0 0 1-34.133333 34.133333z" p-id="2183" fill="#C2B3C4"></path><path d="M512 955.733333c-110.011733 0-205.3632-39.5776-283.426133-117.640533S110.933333 664.661333 110.933333 554.666667c0-110.011733 39.5776-205.3632 117.640534-283.426134 62.634667-62.651733 136.482133-100.744533 219.4432-113.186133A451.4816 451.4816 0 0 1 512 153.6c40.721067 0 79.6672 5.393067 115.7632 16.059733 52.770133 15.428267 101.444267 42.461867 144.657067 80.3328 7.424 6.263467 15.240533 13.482667 23.022933 21.248 78.062933 78.08 117.6576 173.448533 117.6576 283.426134 0 109.9776-39.5776 205.346133-117.6576 283.426133C717.3632 916.155733 621.994667 955.733333 512 955.733333z m0-768c-20.189867 0-40.055467 1.3824-59.016533 4.096-75.4688 11.332267-142.8992 46.1824-200.260267 103.543467C181.282133 366.7968 145.066667 454.0416 145.066667 554.666667c0 100.625067 36.215467 187.869867 107.639466 259.293866C324.1472 885.384533 411.374933 921.6 512 921.6c100.625067 0 187.869867-36.215467 259.293867-107.639467 71.441067-71.458133 107.656533-158.685867 107.656533-259.293866s-36.215467-187.8528-107.656533-259.293867c-7.099733-7.099733-14.216533-13.653333-21.1456-19.524267-39.662933-34.781867-84.002133-59.426133-131.9936-73.454933C585.147733 192.6656 549.444267 187.733333 512 187.733333z" p-id="2184" fill="#C2B3C4"></path><path d="M477.866667 98.986667h68.266666V170.666667h-68.266666z" p-id="2185" fill="#C2B3C4"></path></svg>